<?xml version="1.0"?>
<svg xmlns="http://www.w3.org/2000/svg" height="512px" viewBox="0 0 511.99982 511" width="512px" class=""><g><path d="m505.8125 438.464844-32.898438-60.167969v-271.804687c0-11.042969-8.953124-19.996094-20-19.996094h-40.996093c-11.046875 0-20 8.953125-20 19.996094 0 11.046874 8.953125 20 20 20h20.996093v234.988281h-351.976562v-234.988281h14.996094c11.046875 0 20-8.953126 20-20 0-11.042969-8.953125-19.996094-20-19.996094h-34.996094c-11.046875 0-20 8.953125-20 19.996094v268.144531l-34.898438 63.828125c-8.398437 15.359375-8.019531 33.625 1.015626 48.863281 9.316406 15.710937 25.738281 25.09375 43.929687 25.09375h410.882813c17.871093 0 33.976562-9.167969 43.082031-24.523437 9.085937-15.324219 9.410156-33.804688.863281-49.433594zm-35.265625 29.03125c-.878906 1.480468-3.484375 4.976562-8.679687 4.976562h-137c-.546876-10.554687-9.253907-18.996094-19.945313-18.996094h-98.992187c-10.691407 0-19.398438 8.441407-19.945313 18.996094h-135c-5.8125 0-8.761719-4.253906-9.523437-5.546875-1.050782-1.765625-2.488282-5.324219-.328126-9.273437l30.195313-55.222656h369.195313l30.195312 55.222656c2.363281 4.324218.90625 8.023437-.171875 9.84375zm-310.46875-352.519532c-7.964844-7.648437-8.222656-20.3125-.574219-28.277343 7.652344-7.964844 20.3125-8.222657 28.277344-.574219l63.816406 61.277344c3.097656 2.949218 6.707032 3.1875 8.574219 3.0625 1.804687-.121094 5.179687-.792969 7.871094-3.914063l98.578125-137.691406c6.429687-8.980469 18.921875-11.050781 27.902344-4.621094 8.980468 6.429688 11.046874 18.921875 4.617187 27.902344l-98.976563 138.253906c-.214843.300781-.4375.597657-.671874.882813-8.984376 11.183594-22.347657 18.144531-36.660157 19.097656-1.132812.074219-2.265625.113281-3.394531.113281-13.140625 0-25.910156-5.066406-35.480469-14.175781zm0 0" data-original="#000000" class="active-path" data-old_color="#000000" fill="#66BFBF"/></g> </svg>
